<svg xmlns="http://www.w3.org/2000/svg" viewBox="0 0 750 500"><g id="freepik--background-simple--inject-18"><path d="M710.55,186.34S656,85.64,546.24,62.34,382.16,95.58,308.72,110.25s-110.9-69-197.35-3.82-115.93,229-35.06,275.79,162.11,48.78,268,35.5,163.37,18.4,238.53,18.75S764.85,328.87,710.55,186.34Z" style="fill:#407BFF"></path><path d="M710.55,186.34S656,85.64,546.24,62.34,382.16,95.58,308.72,110.25s-110.9-69-197.35-3.82-115.93,229-35.06,275.79,162.11,48.78,268,35.5,163.37,18.4,238.53,18.75S764.85,328.87,710.55,186.34Z" style="fill:#fff;opacity:0.7000000000000001"></path></g><g id="freepik--Gears--inject-18"><path d="M707,330.33v-15.1l-12-1.43a36,36,0,0,0-3.92-10.3l7.35-9.34-10.68-10.68-9,7.08a36.26,36.26,0,0,0-10.6-4.54l-1.36-11.38h-15.1L650.34,286a36.3,36.3,0,0,0-10.48,4.46l-9.24-7.27-10.68,10.68,7.51,9.53a36.56,36.56,0,0,0-3.87,9.94l-12.48,1.49V330l13,1.54a35.92,35.92,0,0,0,3.91,9L619.67,351l10.68,10.68,10.74-8.45a36.36,36.36,0,0,0,8.58,3.55l1.64,13.74h15.1L668,357a36.66,36.66,0,0,0,8.8-3.43L687.48,362l10.68-10.68-8-10.2a36.54,36.54,0,0,0,4.2-9.25Zm-47.76,12a20.86,20.86,0,1,1,20.87-20.86A20.86,20.86,0,0,1,659.24,342.36Z" style="fill:none;stroke:#263238;stroke-linejoin:round"></path><path d="M695.94,218.17v-7.89l-6.27-.74a19,19,0,0,0-2-5.39l3.84-4.88-5.58-5.58-4.7,3.7a19.24,19.24,0,0,0-5.54-2.37l-.71-6H667l-.71,6a18.85,18.85,0,0,0-5.47,2.33l-4.83-3.8-5.58,5.58,3.92,5a19.12,19.12,0,0,0-2,5.19l-6.52.78V218l6.77.81a18.92,18.92,0,0,0,2,4.69L650.31,229l5.58,5.58,5.61-4.41A19.29,19.29,0,0,0,666,232l.85,7.18h7.89l.84-7.07a19.11,19.11,0,0,0,4.6-1.79l5.57,4.38,5.58-5.58-4.2-5.33a18.72,18.72,0,0,0,2.2-4.83Zm-25,6.29a10.9,10.9,0,1,1,10.9-10.9A10.91,10.91,0,0,1,671,224.46Z" style="fill:none;stroke:#263238;stroke-linejoin:round"></path><path d="M538,341.15v-6.92l-5.5-.65a16.7,16.7,0,0,0-1.79-4.72l3.37-4.28-4.9-4.9-4.12,3.25a16.57,16.57,0,0,0-4.86-2.08l-.62-5.22h-6.92l-.62,5.22a16.79,16.79,0,0,0-4.8,2L503,319.56l-4.89,4.89,3.44,4.37a16.81,16.81,0,0,0-1.77,4.56l-5.72.68V341l5.94.71a16.58,16.58,0,0,0,1.79,4.11l-3.8,4.83,4.89,4.9,4.92-3.88a16.38,16.38,0,0,0,3.93,1.63l.75,6.3h6.92l.74-6.2a16.79,16.79,0,0,0,4-1.57l4.89,3.84,4.89-4.89-3.68-4.68a16.73,16.73,0,0,0,1.93-4.23Zm-21.88,5.51a9.56,9.56,0,1,1,9.56-9.55A9.55,9.55,0,0,1,516.15,346.66Z" style="fill:none;stroke:#263238;stroke-linejoin:round"></path></g><g id="freepik--Plants--inject-18"><path d="M57.48,201.34c5.94.19,18.19-5,18.2-5s-5.88-7-6.31-7.43c-5-4.6-17.28-10.55-23.89-6.83-4.75,2.68-5.55,8.83-2.53,13.11S52.43,201.17,57.48,201.34Z" style="fill:#407BFF"></path><path d="M76,235.45c5.55-1.32,15.31-8.91,16.08-9.52a159.68,159.68,0,0,0,14.07,15.85c2.92,2.91,5.94,5.75,9,8.56-1.6-1.07-3-2-3.24-2.13-6-3.12-19.46-5.61-24.84-.28-3.89,3.84-3,10,1,13.31s10.72,3.28,15.64,2.11,13.44-7.5,15.65-9.2l3.56,3.2c5.73,5.09,11.47,10.15,16.95,15.28,1.93,1.8,3.76,3.65,5.61,5.5-1.42-.95-2.62-1.74-2.82-1.85-6-3.11-19.45-5.61-24.84-.27-3.88,3.84-3,10,1,13.31s10.73,3.28,15.65,2.1c4.76-1.13,12.61-6.88,15.25-8.89,1.83,2,3.67,3.89,5.36,5.86,1.12,1.37,2.29,2.61,3.34,4.05l3.17,4.17c1.92,2.72,3.92,5.52,5.73,8.22,1.27,1.87,2.45,3.67,3.64,5.49-1.91-1.82-5.7-5.31-6.05-5.56-5.47-4-18.38-8.49-24.52-4-4.41,3.21-4.49,9.41-1,13.32s10.1,4.86,15.14,4.44c5.55-.45,16-6.2,17.24-6.92,2,3,3.84,5.95,5.57,8.76,1.55,2.52,3,4.92,4.35,7.22l4.42-1.76c-1.55-2.49-3.19-5.1-5-7.86-2-3.06-4.15-6.3-6.41-9.6a97.44,97.44,0,0,0,7.83-8.36c5.16,2.46,16.22,3.36,17.64,3.46,0,3.59-.08,7.09-.19,10.38q-.1,3.4-.26,6.55l4.68-1.86c0-1.5,0-3,.07-4.6,0-3.64,0-7.54-.05-11.54,1.43-.25,13.15-2.37,17.75-5.52,4.17-2.86,8.69-7.67,8.93-13s-3.73-10-9.18-9.69c-7.57.41-14.75,12.06-16.46,18.6-.11.39-.74,4.71-1.09,7.43,0-1.63-.06-3.22-.11-4.9-.09-3.33-.28-6.65-.47-10.22-.15-1.72-.31-3.46-.46-5.22s-.47-3.57-.69-5.38c-.61-4.18-1.43-8.37-2.36-12.59,2.92-.08,13.27-.54,17.84-2.75s9.75-6.25,10.8-11.5-2.17-10.44-7.61-11c-7.55-.74-16.4,9.68-19.09,15.9-.17.38-1.6,5.06-2.33,7.64-.58-2.53-1.14-5.05-1.8-7.59-1.92-7.33-4.08-14.69-6.21-22-.65-2.25-1.28-4.51-1.91-6.76,1,0,13.35-.29,18.47-2.76,4.56-2.2,9.75-6.26,10.81-11.51s-2.18-10.44-7.62-11c-7.54-.73-16.4,9.69-19.09,15.9-.2.47-2.25,7.2-2.68,8.93-1.4-5-2.74-9.91-3.86-14.85a157.53,157.53,0,0,1-3.35-20.22c.48,0,13.33-.24,18.58-2.77,4.56-2.19,9.75-6.25,10.81-11.5s-2.18-10.44-7.62-11c-7.54-.74-16.4,9.68-19.09,15.9-.21.48-2.41,7.73-2.71,9.07,0-.4-.12-.8-.15-1.2a114.39,114.39,0,0,1,.36-20.53c.35-3.78.9-7.36,1.51-10.84,2.4.2,13.37,1,18.34-.75,4.77-1.68,10.38-5.15,12-10.25s-1-10.61-6.36-11.74c-7.42-1.56-17.36,7.83-20.72,13.71-.18.32-1.68,3.77-2.73,6.3.3-1.56.58-3.18.9-4.68,1.18-5.61,2.6-10.67,3.9-15.15.76-2.54,1.5-4.82,2.21-7,2.46-1,12.3-5.29,15.85-9.08s6.83-9.35,5.92-14.62-5.79-9-11.05-7.49c-7.31,2-11.81,14.95-12.08,21.71,0,.59.66,9.77.79,9.72l.15-.06c-.73,2-1.48,4.22-2.26,6.63-1.4,4.45-2.94,9.5-4.24,15.11a158.71,158.71,0,0,0-3.36,18.29,116.1,116.1,0,0,0-.81,20.79c0,.08,0,.16,0,.24-.78-2.07-3.17-7.81-3.41-8.23C174.2,173,164.36,163.55,156.92,165c-5.35,1.06-8,6.65-6.49,11.66s7.14,8.65,11.89,10.39c5.35,1.95,17.68,1,18.67.92a158.09,158.09,0,0,0,3,21c.83,4,1.79,8.08,2.8,12.12-.73-1.78-1.41-3.36-1.52-3.57-3.3-5.92-13.13-15.41-20.57-13.93-5.36,1.06-8,6.66-6.49,11.67s7.13,8.64,11.88,10.38,15.35,1.16,18.13,1c.41,1.55.8,3.1,1.21,4.64,2,7.41,4,14.79,5.7,22.09.62,2.57,1.13,5.12,1.64,7.68-.65-1.58-1.22-2.9-1.32-3.09-3.3-5.92-13.13-15.41-20.57-13.93-5.36,1.06-8,6.65-6.49,11.67s7.13,8.64,11.88,10.38c4.6,1.68,14.33,1.21,17.63,1,.46,2.64.92,5.27,1.24,7.85.17,1.76.47,3.44.55,5.22s.23,3.5.35,5.22c.1,3.33.22,6.77.24,10,0,2.26,0,4.42,0,6.59-.58-2.57-1.82-7.57-2-8a34.89,34.89,0,0,0-10.61-14,11.35,11.35,0,0,0-.85-1.8c-2.69-4.49-8.63-6.27-13-3-6.09,4.52-5.64,18.19-3.47,24.6.13.38,2,4.33,3.2,6.8-.94-1.35-1.83-2.66-2.8-4-1.92-2.73-3.9-5.39-6-8.27l-3.27-4.1c-1.06-1.39-2.35-2.72-3.54-4.1-2.81-3.15-5.81-6.2-8.91-9.2,2.39-1.68,10.77-7.77,13.37-12.14s4.67-10.6,2.66-15.55-7.58-7.51-12.4-4.95c-6.7,3.55-8.34,17.12-7.16,23.79.08.41,1.46,5.1,2.27,7.66-1.87-1.79-3.73-3.59-5.68-5.34-5.64-5.06-11.51-10-17.34-15-1.79-1.51-3.55-3.05-5.32-4.58.86-.59,11-7.61,13.88-12.5,2.59-4.34,4.68-10.59,2.67-15.55s-7.58-7.51-12.4-5c-6.7,3.55-8.34,17.12-7.16,23.79.09.5,2.09,7.25,2.69,8.93-3.9-3.36-7.75-6.75-11.41-10.25a157.65,157.65,0,0,1-14-15c.4-.27,11-7.56,14-12.56,2.59-4.35,4.68-10.6,2.67-15.56s-7.58-7.5-12.4-5c-6.7,3.55-8.34,17.13-7.16,23.79.1.53,2.26,7.78,2.74,9.07-.25-.31-.54-.6-.78-.91a115.53,115.53,0,0,1-11-17.33c-1.79-3.35-3.31-6.64-4.71-9.88,2.11-1.15,11.7-6.53,14.88-10.74,3-4,5.81-10,4.35-15.17s-6.7-8.29-11.78-6.28c-7,2.79-10.16,16.1-9.72,22.86,0,.37.68,4.08,1.2,6.77-.61-1.47-1.27-3-1.83-4.4C72,184.59,70.4,179.58,69,175.13c-.77-2.54-1.42-4.85-2-7,1.48-2.22,7.33-11.21,8.2-16.32s.54-11.57-3.12-15.47-9.77-4.27-13.35-.15c-5,5.73-1.6,19,1.9,24.78.3.5,5.94,7.78,6,7.67l.09-.14c.52,2.1,1.09,4.34,1.77,6.78,1.29,4.48,2.79,9.54,4.8,14.94a159.2,159.2,0,0,0,7.29,17.11,117.15,117.15,0,0,0,10.79,17.79c0,.06.11.12.16.19-1.8-1.3-7-4.77-7.39-5-6-3.12-19.45-5.61-24.84-.27-3.88,3.84-3,10,1,13.31S71.09,236.63,76,235.45Z" style="fill:#407BFF"></path><path d="M183.62,154.26c.14,0-1-9.11-1.16-9.68-1.61-6.57-8.59-18.33-16.16-18.87-5.45-.39-9.5,4.3-9.34,9.54s4.6,10.22,8.72,13.15C170.52,151.84,183.61,154.26,183.62,154.26Z" style="fill:#407BFF"></path><path d="M664.9,123.17c-5,2.46-17.55,2.74-17.56,2.74s2.33-8.31,2.54-8.82c2.49-5.87,10.75-15.74,17.86-15.1,5.12.46,8.18,5.43,7.24,10.27S669.17,121.07,664.9,123.17Z" style="fill:#407BFF"></path><path d="M662.19,159.61c-5.27,1-16.58-1.73-17.48-2a148.41,148.41,0,0,1-5.94,19c-1.37,3.62-2.88,7.23-4.42,10.83.95-1.54,1.81-2.9,1.95-3.08,4-5,14.53-12.34,21.21-9.85,4.82,1.8,6.45,7.4,4.27,11.82s-7.93,7-12.6,7.85-14.44-1.23-17-1.83c-.61,1.37-1.2,2.75-1.81,4.12-3,6.59-5.92,13.15-8.63,19.67-1,2.29-1.82,4.59-2.69,6.89.85-1.37,1.57-2.51,1.7-2.67,4-5,14.53-12.34,21.21-9.85,4.82,1.8,6.46,7.4,4.28,11.82s-7.94,7-12.61,7.85-13.49-1-16.53-1.73c-.82,2.38-1.65,4.76-2.33,7.1-.43,1.61-1,3.13-1.3,4.77s-.75,3.22-1.11,4.8c-.6,3.08-1.23,6.26-1.74,9.27-.36,2.1-.68,4.1-1,6.12.92-2.3,2.83-6.76,3-7.11,3.15-5.54,12.49-14.4,19.48-12.94,5,1,7.5,6.33,6,11s-6.79,8.08-11.27,9.67c-4.94,1.76-16.09.85-17.48.73-.52,3.34-1,6.6-1.38,9.68-.36,2.75-.67,5.37-.95,7.87l-4.47.2c.36-2.74.77-5.61,1.23-8.66.51-3.4,1.13-7,1.79-10.73a89.45,89.45,0,0,1-10-4.15c-3.47,4.12-12.62,9.16-13.8,9.8,1.41,3.07,2.81,6.05,4.18,8.83q1.41,2.88,2.75,5.52l-4.73.21c-.6-1.27-1.21-2.56-1.84-3.91-1.44-3.11-2.93-6.47-4.42-9.93-1.33.34-12.2,3.06-17.37,2.13-4.68-.84-10.41-3.21-12.7-7.7s-.66-10,4.14-11.87c6.66-2.57,17.32,4.64,21.32,9.6.24.29,2.45,3.75,3.81,5.95-.6-1.42-1.2-2.79-1.8-4.25-1.21-2.89-2.33-5.82-3.55-8.95L570,247c-.57-1.54-1-3.25-1.49-4.88-1.09-3.82-2-7.74-2.85-11.71-2.53,1-11.58,4.66-16.37,4.54s-10.78-1.6-13.71-5.7-2.18-9.8,2.28-12.35c6.2-3.55,17.82,2,22.54,6.25.29.27,3.32,3.73,5,5.66-.49-2.39-1-4.78-1.4-7.21-1.19-7-2.18-14.18-3.2-21.31-.31-2.19-.64-4.36-1-6.54-.9.39-11.57,4.91-16.92,4.77-4.76-.12-10.79-1.6-13.72-5.69s-2.17-9.8,2.29-12.36c6.19-3.55,17.81,2,22.53,6.26.35.32,4.71,5.3,5.76,6.62-.73-4.79-1.49-9.56-2.44-14.23a146.67,146.67,0,0,0-5-18.64c-.41.18-11.53,4.95-17,4.81-4.76-.12-10.79-1.6-13.72-5.7s-2.17-9.79,2.29-12.35c6.19-3.55,17.82,2,22.53,6.25.37.34,5.06,5.7,5.84,6.74-.12-.36-.21-.74-.34-1.09a108.39,108.39,0,0,0-8.25-17.48c-1.76-3.1-3.62-6-5.49-8.71-2,1.1-11.08,6-16,6.45-4.74.4-10.9-.41-14.26-4.15s-3.23-9.5.92-12.54c5.76-4.21,17.92,0,23.08,3.75.28.2,2.9,2.59,4.78,4.35-.86-1.23-1.73-2.51-2.58-3.66-3.18-4.36-6.36-8.16-9.21-11.5-1.63-1.88-3.15-3.55-4.58-5.1-2.51.06-12.61.21-17.11-1.66s-9.49-5.38-10.75-10.26,1.51-9.93,6.6-10.7c7.05-1.08,15.91,8.25,18.76,14,.24.5,3.21,8.64,3.08,8.65h-.16c1.41,1.47,2.91,3.05,4.51,4.82,2.92,3.28,6.2,7,9.48,11.32a148.53,148.53,0,0,1,10,14.4,110.53,110.53,0,0,1,8.74,17.52,1.87,1.87,0,0,1,.07.22c-.13-2.08-.29-7.93-.26-8.38.54-6.35,5.31-18.31,12.26-19.91,5-1.16,9.47,2.6,10.09,7.5s-2.78,10.18-6.19,13.5c-3.84,3.75-14.78,7.71-15.65,8a150.14,150.14,0,0,1,5.55,19.16c.85,3.78,1.59,7.62,2.28,11.48-.05-1.81-.09-3.43-.07-3.66.54-6.35,5.31-18.3,12.26-19.91,5-1.16,9.46,2.61,10.08,7.5s-2.77,10.18-6.18,13.51-12.72,6.93-15.18,7.84c.25,1.48.51,3,.76,4.45,1.17,7.11,2.31,14.22,3.65,21.15.46,2.45,1,4.84,1.56,7.23-.05-1.6-.07-3-.06-3.16.54-6.35,5.31-18.31,12.26-19.91,5-1.16,9.46,2.6,10.09,7.5s-2.78,10.18-6.19,13.5-11.82,6.58-14.74,7.68c.63,2.43,1.26,4.87,2,7.2.52,1.58.92,3.14,1.54,4.7l1.72,4.62c1.2,2.89,2.43,5.89,3.67,8.69.85,1.95,1.7,3.79,2.54,5.65-.49-2.43-1.36-7.2-1.39-7.61A32.79,32.79,0,0,1,583.59,241a9.73,9.73,0,0,1,0-1.87c.56-4.9,5-8.72,10-7.62,7,1.53,11.88,13.42,12.49,19.77,0,.37,0,4.47-.11,7.06.28-1.51.53-3,.84-4.54.58-3.08,1.26-6.13,2-9.42.41-1.58.81-3.17,1.22-4.78s1-3.25,1.45-4.89c1.2-3.79,2.59-7.57,4.09-11.34-2.7-.53-12.24-2.51-16.16-5.25s-8.12-7.28-8.31-12.32,3.6-9.37,8.73-9c7.12.45,13.78,11.47,15.34,17.65.1.38.72,4.94,1,7.45.91-2.26,1.81-4.52,2.81-6.78,2.89-6.52,6-13,9.09-19.54.95-2,1.87-4,2.79-6-1-.18-12.35-2.29-16.74-5.36-3.9-2.72-8.12-7.28-8.3-12.31s3.59-9.37,8.72-9.05c7.12.46,13.78,11.47,15.34,17.65.12.47,1,7,1.15,8.71,2-4.4,4-8.8,5.83-13.22A149.94,149.94,0,0,0,643,157.67c-.45-.08-12.35-2.23-16.84-5.37-3.91-2.73-8.12-7.29-8.31-12.32s3.6-9.37,8.73-9c7.12.46,13.78,11.47,15.34,17.65.12.49,1.08,7.55,1.16,8.84.09-.36.23-.73.32-1.09a109.21,109.21,0,0,0,2.76-19.13c.24-3.56.27-7,.22-10.3-2.26-.17-12.57-1.08-16.92-3.46-4.18-2.28-8.87-6.35-9.61-11.33s2.55-9.71,7.68-10c7.13-.33,15,9.89,17.19,15.86.12.32,1,3.76,1.59,6.27-.05-1.5-.06-3.05-.13-4.48-.26-5.39-.82-10.32-1.35-14.67-.32-2.47-.66-4.7-1-6.79-2.13-1.32-10.63-6.78-13.36-10.82s-4.94-9.72-3.3-14.48,6.73-7.45,11.4-5.3c6.48,3,8.72,15.67,7.95,22-.07.54-2.09,9-2.2,8.91l-.13-.08c.37,2,.74,4.14,1.1,6.49.63,4.36,1.3,9.28,1.67,14.68a151,151,0,0,1,.36,17.5A110.4,110.4,0,0,1,645,156.69l-.06.23c1-1.82,4.13-6.79,4.41-7.14,3.95-5,14.52-12.34,21.21-9.85,4.81,1.8,6.45,7.4,4.27,11.82S666.87,158.71,662.19,159.61Z" style="fill:#407BFF"></path><path d="M538.45,131.57c-.11.07-2.65-8.22-2.75-8.76-1.16-6.27.29-19,6.57-22.44,4.52-2.44,9.81,0,11.7,4.57s0,10.55-2.39,14.66C548.75,124.42,538.46,131.56,538.45,131.57Z" style="fill:#407BFF"></path><path d="M699.78,388.93c-2,.71-6.63.31-6.64.31s1.2-3,1.31-3.18c1.16-2.08,4.63-5.42,7.25-4.89a3.17,3.17,0,0,1,2.28,4.12C703.42,387.09,701.46,388.32,699.78,388.93Z" style="fill:#407BFF"></path><path d="M697.3,402.37c-2,.16-6.1-1.32-6.43-1.43a55.8,55.8,0,0,1-3,6.84c-.66,1.29-1.36,2.57-2.09,3.84.42-.53.8-1,.86-1.06,1.67-1.7,5.9-4,8.28-2.8a3.16,3.16,0,0,1,1.11,4.57c-1,1.59-3.23,2.26-5,2.4s-5.32-1-6.25-1.37l-.84,1.46c-1.37,2.33-2.74,4.65-4,7-.45.82-.86,1.64-1.28,2.46.37-.48.69-.87.74-.93,1.67-1.7,5.9-4,8.29-2.8a3.16,3.16,0,0,1,1.11,4.57c-1,1.59-3.23,2.27-5,2.41s-5-.93-6.08-1.32c-.4.86-.8,1.71-1.15,2.55-.23.58-.49,1.12-.68,1.72s-.41,1.17-.61,1.74c-.34,1.12-.71,2.28-1,3.38-.22.76-.42,1.5-.62,2.23.44-.81,1.33-2.4,1.42-2.52,1.4-1.93,5.23-4.84,7.77-4a3.16,3.16,0,0,1,1.79,4.35c-.76,1.72-2.86,2.73-4.59,3.14-1.91.45-6-.34-6.53-.44-.33,1.22-.63,2.41-.9,3.54s-.47,2-.68,2.89l-1.67-.11c.25-1,.51-2.06.81-3.17s.71-2.56,1.1-3.92a34.66,34.66,0,0,1-3.53-1.94c-1.46,1.39-5.06,2.89-5.53,3.08.4,1.2.8,2.36,1.2,3.45.27.76.54,1.48.8,2.17l-1.77-.12c-.17-.49-.35-1-.53-1.53-.41-1.21-.82-2.52-1.24-3.87-.51.07-4.66.64-6.54.09-1.71-.5-3.75-1.62-4.41-3.38a3.16,3.16,0,0,1,2-4.25c2.58-.68,6.25,2.43,7.54,4.44.07.11.76,1.49,1.17,2.37-.16-.56-.33-1.09-.5-1.66-.33-1.12-.63-2.26-1-3.47l-.42-1.8c-.15-.6-.23-1.25-.35-1.88-.25-1.46-.44-3-.59-4.47-1,.29-4.5,1.27-6.27,1s-3.94-1-4.87-2.68a3.16,3.16,0,0,1,1.36-4.5c2.44-1.07,6.54,1.46,8.12,3.24.1.11,1.09,1.52,1.61,2.31-.08-.91-.17-1.82-.22-2.74-.16-2.66-.24-5.36-.33-8.06,0-.82-.06-1.64-.09-2.47-.35.11-4.5,1.36-6.49,1.09-1.76-.24-3.94-1-4.87-2.67a3.17,3.17,0,0,1,1.35-4.51c2.45-1.07,6.55,1.46,8.13,3.25.12.13,1.54,2.16,1.87,2.69-.07-1.81-.16-3.61-.32-5.39a55.84,55.84,0,0,0-1.09-7.13c-.16,0-4.49,1.37-6.52,1.09-1.77-.23-3.95-1-4.87-2.67a3.15,3.15,0,0,1,1.35-4.5c2.45-1.07,6.55,1.45,8.13,3.24.12.14,1.65,2.32,1.89,2.74,0-.14,0-.28-.08-.42a40.31,40.31,0,0,0-2.35-6.83c-.53-1.23-1.11-2.37-1.69-3.47-.78.33-4.37,1.8-6.23,1.75s-4-.59-5.13-2.12a3.16,3.16,0,0,1,.85-4.63c2.32-1.33,6.67.73,8.43,2.33.1.09,1,1.09,1.6,1.82-.27-.49-.54-1-.81-1.47-1-1.75-2-3.29-3-4.65-.53-.76-1-1.45-1.49-2.08-.94-.08-4.7-.44-6.3-1.32s-3.3-2.38-3.58-4.25a3.17,3.17,0,0,1,2.89-3.71c2.67-.11,5.58,3.72,6.41,5.95.07.2.84,3.35.79,3.34h0c.46.6.95,1.25,1.48,2,1,1.34,2,2.86,3.06,4.6a54,54,0,0,1,3.12,5.76,40.68,40.68,0,0,1,2.54,6.87s0,.06,0,.08c0-.78.21-3,.24-3.12.46-2.34,2.72-6.59,5.37-6.91a3.16,3.16,0,0,1,3.45,3.2c0,1.88-1.45,3.67-2.85,4.77-1.58,1.24-5.82,2.26-6.15,2.35a55.36,55.36,0,0,1,1.28,7.34c.17,1.45.29,2.9.39,4.37.05-.68.1-1.28.12-1.36.46-2.34,2.72-6.6,5.37-6.91a3.15,3.15,0,0,1,3.44,3.2c0,1.88-1.44,3.67-2.85,4.77s-5,2.06-6,2.3c0,.56.07,1.12.1,1.68.15,2.7.28,5.39.5,8,.07.93.18,1.84.28,2.75.05-.6.1-1.1.11-1.18.46-2.34,2.72-6.59,5.37-6.91a3.17,3.17,0,0,1,3.45,3.2c0,1.89-1.45,3.68-2.85,4.77s-4.67,2-5.8,2.26c.14.93.27,1.86.45,2.76.13.61.21,1.2.38,1.81l.45,1.79c.33,1.12.66,2.29,1,3.38.24.76.48,1.48.72,2.2-.09-.92-.22-2.73-.21-2.88a12.22,12.22,0,0,1,2-5.85,3.27,3.27,0,0,1,.08-.7,3.16,3.16,0,0,1,4-2.42c2.53.85,3.87,5.47,3.84,7.85,0,.15-.19,1.67-.33,2.63.17-.55.32-1.09.5-1.66.35-1.12.72-2.23,1.12-3.42.21-.57.43-1.15.65-1.73s.49-1.17.74-1.76c.59-1.36,1.27-2.71,2-4.05-1-.3-4.44-1.43-5.79-2.61s-2.72-3-2.59-4.92a3.15,3.15,0,0,1,3.61-3c2.64.45,4.66,4.82,5,7.18,0,.15.07,1.87.08,2.82.43-.81.86-1.61,1.32-2.41,1.34-2.31,2.76-4.61,4.17-6.9.44-.7.86-1.41,1.29-2.11-.35-.11-4.51-1.36-6-2.68-1.34-1.17-2.73-3-2.59-4.91a3.16,3.16,0,0,1,3.61-3c2.63.46,4.66,4.82,5,7.18,0,.18.09,2.66.07,3.29.94-1.55,1.86-3.11,2.71-4.68a56.56,56.56,0,0,0,3-6.55c-.16-.05-4.5-1.33-6-2.68-1.34-1.17-2.72-3-2.58-4.92a3.15,3.15,0,0,1,3.61-3c2.63.46,4.66,4.83,5,7.19,0,.18.09,2.85.07,3.33l.16-.39a40.3,40.3,0,0,0,1.8-7c.24-1.32.39-2.58.51-3.82-.84-.16-4.63-.92-6.16-2s-3-2.72-3.11-4.6a3.16,3.16,0,0,1,3.26-3.39c2.67.17,5.16,4.29,5.75,6.6,0,.12.21,1.43.33,2.39,0-.56.11-1.13.14-1.67.12-2,.11-3.87.09-5.51,0-.93,0-1.77-.09-2.56-.74-.58-3.68-3-4.53-4.57s-1.44-3.82-.64-5.52a3.15,3.15,0,0,1,4.45-1.5c2.29,1.37,2.61,6.18,2.07,8.5-.05.2-1.14,3.25-1.18,3.22l0,0q.09,1.13.15,2.46c0,1.64.1,3.5,0,5.52a56.35,56.35,0,0,1-.58,6.53,40.69,40.69,0,0,1-1.67,7.13l0,.08c.46-.63,1.81-2.36,1.93-2.48,1.67-1.7,5.9-4,8.28-2.8A3.16,3.16,0,0,1,702.3,400C701.29,401.55,699.07,402.23,697.3,402.37Z" style="fill:#407BFF"></path><path d="M652.42,386.91s-.65-3.16-.67-3.36c-.17-2.38.88-7.08,3.36-8.08a3.15,3.15,0,0,1,4.16,2.17c.53,1.81-.42,3.93-1.48,5.36C656.54,384.68,652.42,386.91,652.42,386.91Z" style="fill:#407BFF"></path><path d="M512.25,410.19a14.1,14.1,0,0,0,4.17.19s-.75-1.88-.82-2c-.73-1.31-2.91-3.4-4.55-3.07a2,2,0,0,0-1.43,2.58A4.15,4.15,0,0,0,512.25,410.19Z" style="fill:#407BFF"></path><path d="M513.81,418.62a13.76,13.76,0,0,0,4-.9,32.8,32.8,0,0,0,1.87,4.29c.41.82.85,1.62,1.31,2.42l-.54-.67c-1-1.07-3.7-2.51-5.2-1.76a2,2,0,0,0-.7,2.87,4.15,4.15,0,0,0,3.15,1.51,13.11,13.11,0,0,0,3.92-.86l.52.92c.86,1.46,1.72,2.91,2.52,4.36.28.52.54,1,.8,1.54l-.46-.58c-1-1.06-3.71-2.5-5.2-1.75a2,2,0,0,0-.7,2.87,4.18,4.18,0,0,0,3.14,1.51,12.91,12.91,0,0,0,3.82-.83c.25.54.5,1.07.72,1.6.14.36.31.7.43,1.08s.25.73.38,1.09c.22.7.45,1.43.64,2.12.14.48.26.94.39,1.4-.28-.51-.84-1.5-.89-1.58-.88-1.21-3.28-3-4.88-2.52a2,2,0,0,0-1.12,2.72,4.11,4.11,0,0,0,2.88,2,13.6,13.6,0,0,0,4.1-.27c.2.76.4,1.51.57,2.22l.42,1.81,1-.06-.51-2c-.21-.78-.44-1.61-.69-2.46a21.25,21.25,0,0,0,2.21-1.22,14.67,14.67,0,0,0,3.47,1.93c-.25.76-.5,1.49-.75,2.17-.17.47-.33.92-.5,1.36l1.11-.07c.11-.32.22-.63.33-1,.26-.77.52-1.59.78-2.43a13.79,13.79,0,0,0,4.11,0,4.09,4.09,0,0,0,2.76-2.12,2,2,0,0,0-1.26-2.67c-1.62-.43-3.93,1.53-4.74,2.79,0,.07-.47.94-.73,1.48.1-.34.21-.68.31-1,.21-.71.4-1.42.6-2.18.09-.38.17-.75.26-1.13s.15-.78.22-1.18c.16-.92.28-1.86.37-2.8a13.07,13.07,0,0,0,3.94.64,4.15,4.15,0,0,0,3-1.68,2,2,0,0,0-.85-2.83c-1.53-.67-4.1.92-5.1,2-.06.07-.68.95-1,1.44.05-.57.11-1.13.14-1.71.1-1.67.15-3.37.21-5.06,0-.52,0-1,.06-1.55a13.61,13.61,0,0,0,4.07.68A4.15,4.15,0,0,0,545.7,423a2,2,0,0,0-.85-2.82c-1.53-.67-4.1.91-5.09,2-.08.09-1,1.36-1.18,1.7,0-1.14.1-2.27.21-3.39a32.06,32.06,0,0,1,.68-4.47,13.79,13.79,0,0,0,4.09.68,4.14,4.14,0,0,0,3.06-1.67,2,2,0,0,0-.85-2.83c-1.54-.67-4.11.91-5.1,2-.08.08-1,1.45-1.19,1.72,0-.09,0-.18,0-.27A24.87,24.87,0,0,1,541,411.4c.33-.77.69-1.48,1.06-2.17a13.18,13.18,0,0,0,3.9,1.1,4.15,4.15,0,0,0,3.22-1.34,2,2,0,0,0-.53-2.9c-1.45-.83-4.18.46-5.29,1.47-.06.05-.61.67-1,1.13.17-.31.34-.63.51-.92.63-1.1,1.28-2.06,1.86-2.92.33-.48.64-.91.94-1.3a13.43,13.43,0,0,0,4-.83,4.14,4.14,0,0,0,2.24-2.67,2,2,0,0,0-1.81-2.33c-1.67-.07-3.5,2.34-4,3.74,0,.12-.53,2.1-.5,2.1h0l-.93,1.24c-.6.84-1.27,1.8-1.92,2.89a32.69,32.69,0,0,0-2,3.61,25.79,25.79,0,0,0-1.59,4.31l0,.06c0-.49-.13-1.86-.15-2-.29-1.46-1.7-4.13-3.37-4.33a2,2,0,0,0-2.16,2,4.15,4.15,0,0,0,1.79,3,13.68,13.68,0,0,0,3.86,1.47,35.61,35.61,0,0,0-.81,4.62q-.15,1.35-.24,2.73c0-.42-.07-.8-.08-.85-.28-1.47-1.7-4.14-3.37-4.34a2,2,0,0,0-2.16,2,4.16,4.16,0,0,0,1.79,3,13.07,13.07,0,0,0,3.74,1.44l-.06,1.06c-.09,1.69-.18,3.37-.31,5,0,.58-.12,1.15-.18,1.72,0-.37-.06-.69-.07-.74-.29-1.47-1.71-4.13-3.37-4.33a2,2,0,0,0-2.16,2,4.15,4.15,0,0,0,1.79,3,12.53,12.53,0,0,0,3.63,1.42c-.08.58-.17,1.17-.28,1.73-.08.38-.13.75-.24,1.13s-.19.76-.28,1.13c-.21.7-.42,1.43-.63,2.12l-.45,1.38c0-.58.13-1.72.13-1.81a7.74,7.74,0,0,0-1.27-3.67,3.32,3.32,0,0,0-.06-.44,2,2,0,0,0-2.53-1.52c-1.59.53-2.43,3.44-2.41,4.93,0,.09.12,1.05.21,1.65-.11-.35-.2-.69-.31-1-.22-.7-.46-1.4-.71-2.15L528,436c-.13-.37-.31-.74-.47-1.11-.37-.85-.79-1.7-1.24-2.54a13,13,0,0,0,3.64-1.64,4.1,4.1,0,0,0,1.62-3.08,2,2,0,0,0-2.26-1.89c-1.65.29-2.93,3-3.13,4.51,0,.09-.05,1.17-.05,1.76-.27-.5-.54-1-.83-1.51-.84-1.45-1.73-2.89-2.62-4.33l-.81-1.32a14,14,0,0,0,3.78-1.68,4.16,4.16,0,0,0,1.62-3.09,2,2,0,0,0-2.27-1.88c-1.65.28-2.92,3-3.13,4.51,0,.11,0,1.66,0,2.06-.59-1-1.17-2-1.7-2.94a34.37,34.37,0,0,1-1.9-4.11A13.91,13.91,0,0,0,522,416a4.14,4.14,0,0,0,1.62-3.09,2,2,0,0,0-2.26-1.89c-1.65.29-2.92,3-3.13,4.51,0,.12-.06,1.79,0,2.1,0-.09-.07-.17-.1-.25A25.9,25.9,0,0,1,517,413c-.15-.82-.24-1.62-.32-2.39a13.61,13.61,0,0,0,3.87-1.24,4.18,4.18,0,0,0,2-2.89,2,2,0,0,0-2.05-2.13c-1.67.11-3.24,2.69-3.6,4.14,0,.08-.14.9-.22,1.51,0-.35-.06-.72-.08-1.05-.08-1.27-.07-2.43-.06-3.46,0-.59,0-1.12.06-1.61a13.07,13.07,0,0,0,2.84-2.87,4.11,4.11,0,0,0,.4-3.46,2,2,0,0,0-2.79-.94c-1.44.86-1.64,3.87-1.3,5.33,0,.13.72,2,.74,2l0,0c0,.48-.06,1-.09,1.55,0,1-.06,2.19,0,3.46a34.51,34.51,0,0,0,.36,4.1,25.29,25.29,0,0,0,1,4.47s0,0,0,.05c-.29-.39-1.14-1.47-1.21-1.55-1.05-1.06-3.71-2.51-5.2-1.76a2,2,0,0,0-.7,2.87A4.14,4.14,0,0,0,513.81,418.62Z" style="fill:#407BFF"></path><path d="M542,408.92s.41-2,.42-2.11c.11-1.49-.56-4.44-2.11-5.07a2,2,0,0,0-2.61,1.37,4.08,4.08,0,0,0,.93,3.35A14,14,0,0,0,542,408.92Z" style="fill:#407BFF"></path><path d="M315.4,388.93c-2,.71-6.64.31-6.64.31s1.2-3,1.3-3.18c1.17-2.08,4.64-5.42,7.26-4.89a3.16,3.16,0,0,1,2.27,4.12C319,387.09,317.07,388.32,315.4,388.93Z" style="fill:#407BFF"></path><path d="M312.91,402.37c-2,.16-6.09-1.32-6.42-1.43a55.8,55.8,0,0,1-3,6.84c-.66,1.29-1.37,2.57-2.09,3.84l.85-1.06c1.68-1.7,5.91-4,8.29-2.8a3.16,3.16,0,0,1,1.11,4.57c-1,1.59-3.23,2.26-5,2.4s-5.31-1-6.24-1.37l-.84,1.46c-1.37,2.33-2.74,4.65-4,7-.45.82-.86,1.64-1.28,2.46.37-.48.69-.87.74-.93,1.67-1.7,5.9-4,8.29-2.8a3.16,3.16,0,0,1,1.11,4.57c-1,1.59-3.24,2.27-5,2.41s-5-.93-6.08-1.32c-.4.86-.8,1.71-1.15,2.55-.23.58-.49,1.12-.68,1.72l-.61,1.74c-.35,1.12-.71,2.28-1,3.38-.22.76-.42,1.5-.62,2.23.44-.81,1.33-2.4,1.42-2.52,1.39-1.93,5.23-4.84,7.77-4a3.15,3.15,0,0,1,1.78,4.35c-.76,1.72-2.85,2.73-4.58,3.14-1.91.45-6-.34-6.53-.44-.33,1.22-.63,2.41-.91,3.54s-.46,2-.67,2.89l-1.67-.11c.25-1,.51-2.06.81-3.17s.7-2.56,1.1-3.92a34.66,34.66,0,0,1-3.53-1.94c-1.46,1.39-5.06,2.89-5.53,3.08.4,1.2.8,2.36,1.2,3.45.27.76.53,1.48.79,2.17l-1.76-.12c-.18-.49-.35-1-.53-1.53-.41-1.21-.83-2.52-1.24-3.87-.51.07-4.66.64-6.54.09-1.71-.5-3.75-1.62-4.41-3.38a3.16,3.16,0,0,1,2-4.25c2.58-.68,6.25,2.43,7.54,4.44.07.11.75,1.49,1.17,2.37l-.5-1.66c-.33-1.12-.63-2.26-.95-3.47l-.42-1.8c-.15-.6-.23-1.25-.35-1.88-.26-1.46-.44-3-.59-4.47-1,.29-4.5,1.27-6.27,1s-3.95-1-4.87-2.68a3.15,3.15,0,0,1,1.35-4.5c2.45-1.07,6.55,1.46,8.13,3.24.1.11,1.08,1.52,1.61,2.31-.08-.91-.17-1.82-.22-2.74-.16-2.66-.24-5.36-.33-8.06,0-.82-.06-1.64-.09-2.47-.35.11-4.5,1.36-6.49,1.09-1.76-.24-4-1-4.87-2.67a3.16,3.16,0,0,1,1.35-4.51c2.45-1.07,6.55,1.46,8.13,3.25.12.13,1.53,2.16,1.87,2.69-.07-1.81-.16-3.61-.33-5.39a55.84,55.84,0,0,0-1.08-7.13c-.16,0-4.49,1.37-6.52,1.09-1.77-.23-3.95-1-4.87-2.67a3.15,3.15,0,0,1,1.35-4.5c2.45-1.07,6.55,1.45,8.12,3.24.13.14,1.65,2.32,1.9,2.74,0-.14,0-.28-.08-.42a40.32,40.32,0,0,0-2.36-6.83c-.53-1.23-1.1-2.37-1.68-3.47-.79.33-4.37,1.8-6.23,1.75s-4-.59-5.13-2.12a3.16,3.16,0,0,1,.85-4.63c2.31-1.33,6.67.73,8.43,2.33.1.09,1,1.09,1.6,1.82-.27-.49-.54-1-.81-1.47-1-1.75-2-3.29-3-4.65-.53-.76-1-1.45-1.49-2.08-.94-.08-4.7-.44-6.3-1.32s-3.31-2.38-3.58-4.25a3.17,3.17,0,0,1,2.89-3.71c2.67-.11,5.58,3.72,6.41,5.95.07.2.84,3.35.79,3.34h-.05c.46.6.95,1.25,1.47,2,1,1.34,2,2.86,3.07,4.6a55.83,55.83,0,0,1,3.12,5.76,41.56,41.56,0,0,1,2.54,6.87.19.19,0,0,0,0,.08c0-.78.21-3,.24-3.12.46-2.34,2.72-6.59,5.37-6.91a3.15,3.15,0,0,1,3.44,3.2c0,1.88-1.44,3.67-2.85,4.77-1.58,1.24-5.81,2.26-6.14,2.35a55.36,55.36,0,0,1,1.28,7.34c.17,1.45.28,2.9.38,4.37.06-.68.11-1.28.13-1.36.46-2.34,2.71-6.6,5.37-6.91a3.15,3.15,0,0,1,3.44,3.2c0,1.88-1.45,3.67-2.85,4.77s-5,2.06-6,2.3c0,.56.07,1.12.1,1.68.15,2.7.28,5.39.5,8,.07.93.18,1.84.28,2.75.05-.6.1-1.1.11-1.18.46-2.34,2.72-6.59,5.37-6.91a3.16,3.16,0,0,1,3.44,3.2c0,1.89-1.44,3.68-2.84,4.77s-4.67,2-5.8,2.26c.14.93.27,1.86.44,2.76.14.61.22,1.2.39,1.81l.45,1.79c.33,1.12.66,2.29,1,3.38.24.76.48,1.48.72,2.2-.09-.92-.22-2.73-.21-2.88a12.2,12.2,0,0,1,2-5.85,4.06,4.06,0,0,1,.09-.7,3.16,3.16,0,0,1,4-2.42c2.53.85,3.87,5.47,3.84,7.85,0,.15-.19,1.67-.33,2.63.17-.55.32-1.09.5-1.66.34-1.12.72-2.23,1.12-3.42.21-.57.43-1.15.65-1.73s.49-1.17.73-1.76c.6-1.36,1.28-2.71,2-4.05-1-.3-4.45-1.43-5.79-2.61s-2.72-3-2.59-4.92a3.15,3.15,0,0,1,3.61-3c2.63.45,4.66,4.82,5,7.18,0,.15.07,1.87.08,2.82.43-.81.86-1.61,1.32-2.41,1.34-2.31,2.76-4.61,4.17-6.9.44-.7.86-1.41,1.28-2.11-.35-.11-4.5-1.36-6-2.68-1.34-1.17-2.72-3-2.58-4.91a3.16,3.16,0,0,1,3.61-3c2.63.46,4.66,4.82,5,7.18,0,.18.09,2.66.07,3.29.94-1.55,1.86-3.11,2.7-4.68a55,55,0,0,0,3-6.55c-.17-.05-4.51-1.33-6.05-2.68-1.34-1.17-2.72-3-2.59-4.92a3.17,3.17,0,0,1,3.62-3c2.63.46,4.65,4.83,5,7.19,0,.18.1,2.85.07,3.33.05-.13.12-.26.17-.39a41.22,41.22,0,0,0,1.8-7c.24-1.32.39-2.58.5-3.82-.83-.16-4.63-.92-6.15-2s-3-2.72-3.11-4.6a3.16,3.16,0,0,1,3.26-3.39c2.66.17,5.16,4.29,5.75,6.6,0,.12.21,1.43.33,2.39.05-.56.1-1.13.14-1.67.12-2,.11-3.87.09-5.51,0-.93-.05-1.77-.1-2.56-.73-.58-3.67-3-4.52-4.57s-1.44-3.82-.64-5.52a3.15,3.15,0,0,1,4.45-1.5c2.29,1.37,2.61,6.18,2.06,8.5,0,.2-1.14,3.25-1.18,3.22l0,0c.06.75.11,1.57.14,2.46.06,1.64.11,3.5,0,5.52a56.35,56.35,0,0,1-.58,6.53,40.69,40.69,0,0,1-1.67,7.13.19.19,0,0,0,0,.08c.46-.63,1.81-2.36,1.93-2.48,1.67-1.7,5.9-4,8.28-2.8a3.16,3.16,0,0,1,1.11,4.57C316.91,401.55,314.69,402.23,312.91,402.37Z" style="fill:#407BFF"></path><path d="M268,386.91c-.05,0-.66-3.16-.67-3.36-.18-2.38.88-7.08,3.35-8.08a3.15,3.15,0,0,1,4.17,2.17c.53,1.81-.42,3.93-1.49,5.36C272.16,384.68,268,386.91,268,386.91Z" style="fill:#407BFF"></path></g><g id="freepik--light-bulb--inject-18"><path d="M672.39,251.76a75.06,75.06,0,1,0-132.73,48A73.75,73.75,0,0,1,556.76,347v10.28H637.9V347A73.56,73.56,0,0,1,655,299.82,74.73,74.73,0,0,0,672.39,251.76Z" style="fill:#fff;stroke:#263238;stroke-linejoin:round"></path><rect x="556.76" y="357.31" width="81.15" height="20.07" style="fill:#fff;stroke:#263238;stroke-linecap:round;stroke-linejoin:round"></rect><path d="M556.76,377.43H637.9a0,0,0,0,1,0,0v15.35a4.73,4.73,0,0,1-4.73,4.73h-71.7a4.73,4.73,0,0,1-4.73-4.73V377.43A0,0,0,0,1,556.76,377.43Z" style="fill:#fff;stroke:#263238;stroke-linecap:round;stroke-linejoin:round"></path><path d="M620.84,417.56h-47a6.84,6.84,0,0,1-6.52-4.8,49.31,49.31,0,0,0-2.13-6l-4.24-9.27h72.8l-4.24,9.27a49.31,49.31,0,0,0-2.13,6A6.84,6.84,0,0,1,620.84,417.56Z" style="fill:#263238;stroke:#263238;stroke-miterlimit:10"></path><circle cx="597.32" cy="252.4" r="66.08" transform="translate(-3.53 496.29) rotate(-45)" style="fill:#407BFF"></circle><circle cx="597.32" cy="252.4" r="33.86" transform="translate(24.07 555.53) rotate(-50.78)" style="fill:#fff;opacity:0.65"></circle><path d="M588.48,357.18s-2.86-93.72-9.23-106.8-11.29.88-5.55,18.94,23.81,14.78,27.92-4.92-2.46-30.38-5.75-14,3.64,37.65,15.37,29.09,28.15-41.41,15.83-35.66-26.27,61.58-17.24,113.31" style="fill:none;stroke:#263238;stroke-linecap:round;stroke-linejoin:round"></path></g><g id="freepik--Money--inject-18"><path d="M200.57,258.08l15.18-48.18s-1.09-2.57-9.9-4.77-12.67,3.67-17.62,5.32-11.18-8-17.62-8.25c-12-.44-14.86,4.4-22.57,7.7s-7.71-3.3-16-6.05-16,6.6-16,6.6l21.32,45.23c-36.45,12.67-62.76,49-62.76,91.79,0,53.36,40.86,96.61,91.26,96.61s91.26-43.25,91.26-96.61C257.19,307.1,233.79,272.52,200.57,258.08Z" style="fill:#fff;stroke:#263238;stroke-linejoin:round"></path><line x1="146.53" y1="249.79" x2="139.77" y2="239.51" style="fill:none;stroke:#263238;stroke-miterlimit:10"></line><line x1="190.34" y1="235.47" x2="186.29" y2="250.34" style="fill:none;stroke:#263238;stroke-miterlimit:10"></line><line x1="148.41" y1="235.81" x2="147.9" y2="231.42" style="fill:none;stroke:#263238;stroke-miterlimit:10"></line><line x1="150.09" y1="250.34" x2="148.83" y2="239.45" style="fill:none;stroke:#263238;stroke-miterlimit:10"></line><line x1="197.61" y1="232.3" x2="199.18" y2="228.95" style="fill:none;stroke:#263238;stroke-miterlimit:10"></line><line x1="189.3" y1="250.07" x2="196.11" y2="235.51" style="fill:none;stroke:#263238;stroke-miterlimit:10"></line><path d="M206.52,312.61a3.65,3.65,0,0,1-3.64-3.42C201,278.56,181.22,258.47,181,258.28a3.65,3.65,0,0,1,5.16-5.17c.89.9,21.9,22.27,24,55.62a3.64,3.64,0,0,1-3.41,3.87Z" style="fill:#fff;stroke:#263238;stroke-linejoin:round"></path><path d="M225.32,305.39a3.64,3.64,0,0,1-4.39-2.37c-9.73-29.11-34-43.44-34.22-43.58a3.65,3.65,0,1,1,3.66-6.31c1.09.63,26.89,15.88,37.48,47.58a3.64,3.64,0,0,1-2.3,4.61Z" style="fill:#fff;stroke:#263238;stroke-linejoin:round"></path><path d="M199.11,259.74H135.73A4.72,4.72,0,0,1,131,255h0a4.72,4.72,0,0,1,4.72-4.72h63.38a4.72,4.72,0,0,1,4.72,4.72h0A4.72,4.72,0,0,1,199.11,259.74Z" style="fill:#fff;stroke:#263238;stroke-linejoin:round"></path><path d="M165.55,381v-8.9q-9.86-.37-14.73-6.31t-5.26-17.69l13.49-2.3a39.27,39.27,0,0,0,1,8,9.92,9.92,0,0,0,2.44,4.78,5.8,5.8,0,0,0,4.21,1.58c2,0,3.33-.64,4.06-1.91a8.61,8.61,0,0,0,1.1-4.4,14.24,14.24,0,0,0-2.24-8.18,34.58,34.58,0,0,0-6.17-6.65l-8.13-7a54,54,0,0,1-5-5.26,21.52,21.52,0,0,1-3.49-6.12,23.2,23.2,0,0,1-1.29-8.13q0-9,5.12-14t13.72-5.69v-8.52H169v8.52a17.68,17.68,0,0,1,8.47,2.34,14.15,14.15,0,0,1,5,5.16,24.07,24.07,0,0,1,2.49,6.79,48.55,48.55,0,0,1,.95,7.13l-13.67,2a44.14,44.14,0,0,0-.58-6.27,9.19,9.19,0,0,0-1.72-4.25,4.43,4.43,0,0,0-3.83-1.44,4.86,4.86,0,0,0-4.06,2.11,7.68,7.68,0,0,0-1.39,4.49,11.08,11.08,0,0,0,2.11,7.08,43.31,43.31,0,0,0,4.78,5.16L175.5,330a53.64,53.64,0,0,1,5.83,6.22,29.1,29.1,0,0,1,4.31,7.41,25.06,25.06,0,0,1,1.62,9.33,20.57,20.57,0,0,1-2,9.23,17.15,17.15,0,0,1-5.93,6.74,19.4,19.4,0,0,1-9.14,3.06v9Z" style="fill:#263238"></path><rect x="115.04" y="417.15" width="100.16" height="27.32" style="fill:#407BFF;stroke:#263238;stroke-miterlimit:10"></rect><rect x="215.06" y="417.15" width="48.01" height="27.32" style="fill:#a3a3a3;stroke:#263238;stroke-linejoin:round"></rect><line x1="115.77" y1="422.36" x2="140.44" y2="422.36" style="fill:none;stroke:#263238;stroke-linejoin:round"></line><line x1="129.92" y1="428.86" x2="150.6" y2="428.86" style="fill:none;stroke:#263238;stroke-linejoin:round"></line><polyline points="204.67 425.39 215.56 425.39 222.52 425.39" style="fill:none;stroke:#263238;stroke-linejoin:round"></polyline><line x1="115.77" y1="436.67" x2="124.48" y2="436.67" style="fill:none;stroke:#263238;stroke-linejoin:round"></line><line x1="128.1" y1="436.67" x2="135.36" y2="436.67" style="fill:none;stroke:#263238;stroke-linejoin:round"></line><line x1="215.56" y1="434.5" x2="177.09" y2="434.5" style="fill:none;stroke:#263238;stroke-linejoin:round"></line><rect x="154.74" y="417.15" width="22.36" height="27.32" style="fill:#fff;stroke:#263238;stroke-linejoin:round"></rect><line x1="262.81" y1="431.23" x2="247.92" y2="431.23" style="fill:none;stroke:#263238;stroke-linejoin:round"></line><line x1="215.07" y1="439.56" x2="226.11" y2="439.56" style="fill:none;stroke:#263238;stroke-linejoin:round"></line><line x1="215.33" y1="430.51" x2="236.37" y2="430.51" style="fill:none;stroke:#263238;stroke-linejoin:round"></line><line x1="262.81" y1="425.8" x2="242.79" y2="425.8" style="fill:none;stroke:#263238;stroke-linejoin:round"></line><line x1="230.47" y1="439.56" x2="235.86" y2="439.56" style="fill:none;stroke:#263238;stroke-linejoin:round"></line><rect x="107.51" y="390.32" width="100.16" height="27.32" style="fill:#407BFF;stroke:#263238;stroke-miterlimit:10"></rect><rect x="207.53" y="390.32" width="48.01" height="27.32" style="fill:#a3a3a3;stroke:#263238;stroke-linejoin:round"></rect><line x1="108.24" y1="395.52" x2="132.91" y2="395.52" style="fill:none;stroke:#263238;stroke-linejoin:round"></line><line x1="122.39" y1="402.02" x2="143.07" y2="402.02" style="fill:none;stroke:#263238;stroke-linejoin:round"></line><polyline points="197.14 398.56 208.03 398.56 214.99 398.56" style="fill:none;stroke:#263238;stroke-linejoin:round"></polyline><line x1="108.24" y1="409.83" x2="116.95" y2="409.83" style="fill:none;stroke:#263238;stroke-linejoin:round"></line><line x1="120.58" y1="409.83" x2="127.83" y2="409.83" style="fill:none;stroke:#263238;stroke-linejoin:round"></line><line x1="208.03" y1="407.66" x2="169.56" y2="407.66" style="fill:none;stroke:#263238;stroke-linejoin:round"></line><rect x="147.21" y="390.31" width="22.36" height="27.32" style="fill:#fff;stroke:#263238;stroke-linejoin:round"></rect><line x1="255.28" y1="404.4" x2="240.39" y2="404.4" style="fill:none;stroke:#263238;stroke-linejoin:round"></line><line x1="207.55" y1="412.72" x2="218.58" y2="412.72" style="fill:none;stroke:#263238;stroke-linejoin:round"></line><line x1="207.8" y1="403.67" x2="228.85" y2="403.67" style="fill:none;stroke:#263238;stroke-linejoin:round"></line><line x1="255.28" y1="398.97" x2="235.26" y2="398.97" style="fill:none;stroke:#263238;stroke-linejoin:round"></line><line x1="222.94" y1="412.72" x2="228.33" y2="412.72" style="fill:none;stroke:#263238;stroke-linejoin:round"></line><rect x="115.54" y="363.48" width="100.16" height="27.32" style="fill:#407BFF;stroke:#263238;stroke-miterlimit:10"></rect><rect x="215.56" y="363.48" width="48.01" height="27.32" style="fill:#a3a3a3;stroke:#263238;stroke-linejoin:round"></rect><line x1="116.27" y1="368.68" x2="140.94" y2="368.68" style="fill:none;stroke:#263238;stroke-linejoin:round"></line><line x1="130.42" y1="375.19" x2="151.1" y2="375.19" style="fill:none;stroke:#263238;stroke-linejoin:round"></line><polyline points="205.17 371.72 216.06 371.72 223.02 371.72" style="fill:none;stroke:#263238;stroke-linejoin:round"></polyline><line x1="116.27" y1="382.99" x2="124.98" y2="382.99" style="fill:none;stroke:#263238;stroke-linejoin:round"></line><line x1="128.6" y1="382.99" x2="135.86" y2="382.99" style="fill:none;stroke:#263238;stroke-linejoin:round"></line><line x1="216.06" y1="380.82" x2="177.59" y2="380.82" style="fill:none;stroke:#263238;stroke-linejoin:round"></line><rect x="155.24" y="363.48" width="22.36" height="27.32" style="fill:#fff;stroke:#263238;stroke-linejoin:round"></rect><line x1="263.31" y1="377.56" x2="248.42" y2="377.56" style="fill:none;stroke:#263238;stroke-linejoin:round"></line><line x1="215.57" y1="385.89" x2="226.61" y2="385.89" style="fill:none;stroke:#263238;stroke-linejoin:round"></line><line x1="215.83" y1="376.84" x2="236.87" y2="376.84" style="fill:none;stroke:#263238;stroke-linejoin:round"></line><line x1="263.31" y1="372.13" x2="243.29" y2="372.13" style="fill:none;stroke:#263238;stroke-linejoin:round"></line><line x1="230.97" y1="385.89" x2="236.36" y2="385.89" style="fill:none;stroke:#263238;stroke-linejoin:round"></line><rect x="132.38" y="386.93" width="124.4" height="57.55" style="fill:#ccc;stroke:#263238;stroke-linejoin:round"></rect><line x1="245.12" y1="387.23" x2="245.12" y2="411.23" style="fill:none;stroke:#263238;stroke-linejoin:round"></line><line x1="248.46" y1="387.4" x2="248.46" y2="394.7" style="fill:none;stroke:#263238;stroke-linejoin:round"></line><line x1="247.46" y1="444.32" x2="247.46" y2="422.58" style="fill:none;stroke:#263238;stroke-linejoin:round"></line><line x1="250.94" y1="444.65" x2="250.94" y2="440.83" style="fill:none;stroke:#263238;stroke-linejoin:round"></line><line x1="254.26" y1="444.48" x2="254.26" y2="433.7" style="fill:none;stroke:#263238;stroke-linejoin:round"></line><line x1="247.29" y1="420.42" x2="247.29" y2="415.94" style="fill:none;stroke:#263238;stroke-linejoin:round"></line><line x1="248.29" y1="396.53" x2="248.29" y2="399.18" style="fill:none;stroke:#263238;stroke-linejoin:round"></line><rect x="132.38" y="386.93" width="109.98" height="57.55" style="fill:#407BFF;stroke:#263238;stroke-linejoin:round"></rect><path d="M235.15,435.31v-39.2a3.91,3.91,0,0,1-3.91-3.91H144.06a3.91,3.91,0,0,1-3.91,3.91,4.89,4.89,0,0,1-.55-.05v39.31a3.31,3.31,0,0,1,.55-.06,3.91,3.91,0,0,1,3.91,3.92h87.18A3.91,3.91,0,0,1,235.15,435.31Zm-47.78-3.37a16.23,16.23,0,1,1,16.23-16.23A16.23,16.23,0,0,1,187.37,431.94Z" style="fill:#fff;stroke:#263238;stroke-linejoin:round"></path><rect x="182.46" y="386.77" width="9.95" height="57.63" style="fill:#fff;stroke:#263238;stroke-linejoin:round"></rect><rect x="81.97" y="429.87" width="42.34" height="14.6" style="fill:#fff;stroke:#263238;stroke-linejoin:round"></rect><rect x="87.36" y="429.87" width="5.39" height="14.6" style="fill:#263238;stroke:#263238;stroke-linejoin:round"></rect><rect x="95.26" y="429.87" width="2.7" height="14.6" style="fill:#263238;stroke:#263238;stroke-linejoin:round"></rect><rect x="85.5" y="415.23" width="42.34" height="14.6" style="fill:#fff;stroke:#263238;stroke-linejoin:round"></rect><rect x="90.89" y="415.23" width="5.39" height="14.6" style="fill:#263238;stroke:#263238;stroke-linejoin:round"></rect><rect x="98.79" y="415.23" width="2.7" height="14.6" style="fill:#263238;stroke:#263238;stroke-linejoin:round"></rect><rect x="81.97" y="400.58" width="42.34" height="14.6" style="fill:#fff;stroke:#263238;stroke-linejoin:round"></rect><rect x="87.36" y="400.58" width="5.39" height="14.6" style="fill:#263238;stroke:#263238;stroke-linejoin:round"></rect><rect x="95.26" y="400.58" width="2.7" height="14.6" style="fill:#263238;stroke:#263238;stroke-linejoin:round"></rect><rect x="79.87" y="385.94" width="42.34" height="14.6" style="fill:#fff;stroke:#263238;stroke-linejoin:round"></rect><rect x="85.27" y="385.94" width="5.39" height="14.6" style="fill:#263238;stroke:#263238;stroke-linejoin:round"></rect><rect x="93.17" y="385.94" width="2.7" height="14.6" style="fill:#263238;stroke:#263238;stroke-linejoin:round"></rect><rect x="81.97" y="371.3" width="42.34" height="14.6" style="fill:#fff;stroke:#263238;stroke-linejoin:round"></rect><rect x="87.36" y="371.3" width="5.39" height="14.6" style="fill:#263238;stroke:#263238;stroke-linejoin:round"></rect><rect x="95.26" y="371.3" width="2.7" height="14.6" style="fill:#263238;stroke:#263238;stroke-linejoin:round"></rect><rect x="45.2" y="429.87" width="42.34" height="14.6" style="fill:#fff;stroke:#263238;stroke-linejoin:round"></rect><rect x="50.6" y="429.87" width="5.39" height="14.6" style="fill:#263238;stroke:#263238;stroke-linejoin:round"></rect><rect x="58.5" y="429.87" width="2.7" height="14.6" style="fill:#263238;stroke:#263238;stroke-linejoin:round"></rect><rect x="48.73" y="415.23" width="42.34" height="14.6" style="fill:#fff;stroke:#263238;stroke-linejoin:round"></rect><rect x="54.13" y="415.23" width="5.39" height="14.6" style="fill:#263238;stroke:#263238;stroke-linejoin:round"></rect><rect x="62.03" y="415.23" width="2.7" height="14.6" style="fill:#263238;stroke:#263238;stroke-linejoin:round"></rect><rect x="45.2" y="400.58" width="42.34" height="14.6" style="fill:#fff;stroke:#263238;stroke-linejoin:round"></rect><rect x="50.6" y="400.58" width="5.39" height="14.6" style="fill:#263238;stroke:#263238;stroke-linejoin:round"></rect><rect x="58.5" y="400.58" width="2.7" height="14.6" style="fill:#263238;stroke:#263238;stroke-linejoin:round"></rect><rect x="43.11" y="385.94" width="42.34" height="14.6" style="fill:#fff;stroke:#263238;stroke-linejoin:round"></rect><rect x="48.5" y="385.94" width="5.39" height="14.6" style="fill:#263238;stroke:#263238;stroke-linejoin:round"></rect><rect x="56.4" y="385.94" width="2.7" height="14.6" style="fill:#263238;stroke:#263238;stroke-linejoin:round"></rect><rect x="45.2" y="371.3" width="42.34" height="14.6" style="fill:#fff;stroke:#263238;stroke-linejoin:round"></rect><rect x="50.6" y="371.3" width="5.39" height="14.6" style="fill:#263238;stroke:#263238;stroke-linejoin:round"></rect><rect x="58.5" y="371.3" width="2.7" height="14.6" style="fill:#263238;stroke:#263238;stroke-linejoin:round"></rect><rect x="45.2" y="356.89" width="42.34" height="14.6" style="fill:#fff;stroke:#263238;stroke-linejoin:round"></rect><rect x="50.6" y="356.89" width="5.39" height="14.6" style="fill:#263238;stroke:#263238;stroke-linejoin:round"></rect><rect x="58.5" y="356.89" width="2.7" height="14.6" style="fill:#263238;stroke:#263238;stroke-linejoin:round"></rect><rect x="45.2" y="342.49" width="42.34" height="14.6" style="fill:#fff;stroke:#263238;stroke-linejoin:round"></rect><rect x="50.6" y="342.49" width="5.39" height="14.6" style="fill:#263238;stroke:#263238;stroke-linejoin:round"></rect><rect x="58.5" y="342.49" width="2.7" height="14.6" style="fill:#263238;stroke:#263238;stroke-linejoin:round"></rect><circle cx="100.08" cy="423.63" r="20.63" style="fill:#fff;stroke:#263238;stroke-linejoin:round"></circle><circle cx="98" cy="423.63" r="20.63" style="fill:#fff;stroke:#263238;stroke-linejoin:round"></circle><circle cx="98" cy="423.63" r="17.67" style="fill:#fff;stroke:#263238;stroke-linejoin:round"></circle><path d="M97.83,438.74v-2.82a6,6,0,0,1-4.66-2,9.14,9.14,0,0,1-1.67-5.6l4.27-.73a12.55,12.55,0,0,0,.32,2.53,3.2,3.2,0,0,0,.77,1.52,1.87,1.87,0,0,0,1.34.5,1.36,1.36,0,0,0,1.28-.61,2.66,2.66,0,0,0,.35-1.39,4.51,4.51,0,0,0-.71-2.59,11,11,0,0,0-2-2.11l-2.58-2.21A17.25,17.25,0,0,1,93,421.57a6.86,6.86,0,0,1-1.11-1.94,7.41,7.41,0,0,1-.41-2.57,5.94,5.94,0,0,1,1.62-4.44,6.72,6.72,0,0,1,4.35-1.8v-2.7h1.45v2.7a5.51,5.51,0,0,1,2.68.74,4.42,4.42,0,0,1,1.59,1.63,7.48,7.48,0,0,1,.79,2.15,15.43,15.43,0,0,1,.3,2.26l-4.33.64a14,14,0,0,0-.18-2,2.9,2.9,0,0,0-.54-1.34,1.39,1.39,0,0,0-1.21-.46,1.52,1.52,0,0,0-1.29.67,2.46,2.46,0,0,0-.44,1.42,3.48,3.48,0,0,0,.67,2.24,13.52,13.52,0,0,0,1.51,1.64L101,422.6a16.45,16.45,0,0,1,1.85,2,8.8,8.8,0,0,1,1.36,2.34,7.82,7.82,0,0,1,.52,3,6.55,6.55,0,0,1-.65,2.92,5.37,5.37,0,0,1-1.88,2.13,6.06,6.06,0,0,1-2.89,1v2.85Z" style="fill:#263238"></path></g><g id="freepik--Characters--inject-18"><path d="M436.11,250s-26.16,3.88-28.58,3.72-12.11-1.62-12.11-1.62l-8.08,1.13,2.91,12.11s5.81,1,8.56-.16a39.52,39.52,0,0,0,5.49-2.91s34.07,5,37.14,2.27S436.11,250,436.11,250Z" style="fill:#fff;stroke:#263238;stroke-miterlimit:10"></path><path d="M324.26,428.76s5.53,2.94,10.2,5.36,10.71,3.8,11.75,4.66-.52,5.36-.52,5.36H302.14a12.78,12.78,0,0,1,0-6.39,46.79,46.79,0,0,1,2.07-6.75Z" style="fill:#fff;stroke:#263238;stroke-miterlimit:10"></path><path d="M298.13,295.72,301.35,314s4.59,37.9,4.07,42.57-5.53,15.38-5.36,24.89,3.63,35.08,3.63,35.59-2.59,3.46-2.59,3.46,2.59,11.41,2.77,12.1,10.71,1,14.34.17A32.6,32.6,0,0,0,325.3,430s1-6.57.69-10a39.71,39.71,0,0,0-2.25-8.29s14.69-56.34,15.21-65,2.59-46,2.59-46l-25.4-13.82Z" style="fill:#263238;stroke:#263238;stroke-miterlimit:10"></path><path d="M351.05,230.87s3.28,19,3.11,35.43,0,31.28-.52,33.36-9.68.69-9.68.69L350,238Z" style="fill:#fff;stroke:#263238;stroke-miterlimit:10"></path><path d="M313.72,177.46S293.49,198,292.63,202.35s-.17,14.69,0,15.9,5,47.53,5,47.53-5.35,11.58-5.18,12.1.34,21.43.34,21.43,2.94,2.77,9,3.8,6.91,1,6.91,1l4.15-8.47,1.39,9.34A29,29,0,0,0,330,307.44c8.65-1.21,15.73-3.29,16.42-3.81s4.84-45.45,5.19-49.6-.17-17.63-.52-23.16-6.05-28.35-6.74-31.11-14.52-14.52-19-16.25A95.68,95.68,0,0,1,313.72,177.46Z" style="fill:#fff;stroke:#263238;stroke-linejoin:round"></path><path d="M351.53,241.67c-.13-4.16-.32-8.3-.48-10.8-.35-5.53-6.05-28.35-6.74-31.11s-14.52-14.52-19-16.25a95.68,95.68,0,0,1-11.58-6s-1.38,1.4-3.43,3.55l14.49,19.09,8.64-.34-3.8,6.22Z" style="fill:#fff;stroke:#263238;stroke-linejoin:round"></path><path d="M313.72,177.46,340,201.66l8.29,26.62s-2.42-24.37-4-28.52-7.61-9.51-7.61-9.51Z" style="fill:#263238;stroke:#263238;stroke-linejoin:round"></path><path d="M351.05,136.67s2.77,9.51,2.59,11.93-1.9,5.7-1.73,6.22,5.19,7.43,4.67,8.3-4.32,2.93-4.32,2.93-.86,10-1.56,12.45-3.28,3.28-7.95,2.59l-4.66-.69-1.9,12.44-20.05-15.38.52-8.64s-7.09-10.37-8.13-13.48,3.11-23,4.5-24.89,12.61-4.84,21.43-4.84,17.45,4.67,18.32,7.26S351.05,136.67,351.05,136.67Z" style="fill:#fff;stroke:#263238;stroke-linejoin:round"></path><path d="M350.7,178.5c.58-2,1.27-9.26,1.49-11.66a13.33,13.33,0,0,0-1.66-.1,13.89,13.89,0,0,0-9.5,3.63c-2.6,2.42-2.6,2.94-4.33,1.91a12.86,12.86,0,0,1-4.14-4.67c-.52-1.21-.35-16.42-.35-16.42s3.28-2.94,4.49-4.15-1.55-7.95-1.72-9.16,16.07-1.21,16.07-1.21,2.59-1.21,1.73-3.8-9.51-7.26-18.32-7.26-20,2.94-21.43,4.84-5.54,21.78-4.5,24.89,8.13,13.48,8.13,13.48l7.08-3.46a26.79,26.79,0,0,1-4.49-5.18c-1.56-2.6.17-6.92,2.94-9s4.66.69,5.35,1.56,1,4.49,1,7.08-1,10.72-.34,13.14,9.85,7.43,9.85,7.43l4.66.69C347.42,181.78,350,180.92,350.7,178.5Z" style="fill:#263238;stroke:#263238;stroke-linejoin:round"></path><ellipse cx="347.42" cy="155.42" rx="1.04" ry="1.99" style="fill:#263238"></ellipse><path d="M345,151.36s2.25-2.42,5-.86" style="fill:none;stroke:#263238;stroke-linejoin:round"></path><path d="M350.88,172.1s-4.32-.34-5.71-2.42" style="fill:none;stroke:#fff;stroke-linejoin:round"></path><polygon points="315.79 174.52 339.12 190.94 338.43 200.45 313.72 177.46 315.79 174.52" style="fill:#fff;stroke:#263238;stroke-linejoin:round"></polygon><path d="M375.25,252.47s7.08-2.76,7.78-3.11,4.83.87,4.83.87,8.65,13,8.82,14,.17,2.07-1.9,2.59-2.32.35-2.32.35-4.4,1.54-6.82.16-9.87-2.24-9.87-2.24Z" style="fill:#fff;stroke:#263238;stroke-miterlimit:10"></path><polygon points="369.2 251.78 375.25 252.47 375.77 265.09 369.54 263.71 369.2 251.78" style="fill:#fff;stroke:#263238;stroke-miterlimit:10"></polygon><path d="M297.82,216.35s15.38,32,19,38.54,7.26,6.92,8.12,7.26,44.94,4.32,44.94,4.32l.52-14.52L336.19,245,323.4,205.46s-6.92-10.89-10.89-12.1-8.64.35-8.64.35" style="fill:#fff;stroke:#263238;stroke-linejoin:round"></path><path d="M314.06,250.05s-9,5.71-11.58,6.92" style="fill:none;stroke:#263238;stroke-miterlimit:10"></path><path d="M313.89,255.58s-9.68,7.61-12.79,9.68" style="fill:none;stroke:#263238;stroke-miterlimit:10"></path><path d="M441.44,264.54c3.07-2.75-5.33-14.54-5.33-14.54l-3.4.5c.92,2.83,3.65,11.08,5.29,14.8C439.73,265.2,441,265,441.44,264.54Z" style="fill:#407BFF;stroke:#263238;stroke-miterlimit:10"></path><path d="M446.28,242.25s-10.33,6-10.17,7.75,3.39,13.73,5.33,14.54,10.17-4.2,10.17-4.2Z" style="fill:#407BFF;stroke:#263238;stroke-miterlimit:10"></path><path d="M474.05,139.93s3.21-5.42,6.26-7.28,10.33,1.52,13.55,5.08,8.47,16.09,10,25.41-2.54,17.61-4.07,19-6.1,3-4.57,7.45,3.55,2,3.55,2-.16,4.74-2.71,6.95a10.75,10.75,0,0,1-13,.84c-5.59-3.38-11-10-11.35-14.56a25.76,25.76,0,0,1,.68-9c.34-.85,7.79-7.79,8.3-14.57s-3.73-15.24-6.1-16.93S474.05,139.93,474.05,139.93Z" style="fill:#263238;stroke:#263238;stroke-miterlimit:10"></path><path d="M491.83,283.23c-3.56-12.37-4.57-14.74-4.57-14.74l-37.61-.85s-1,14.57,0,24.39,1.7,17.45,1.7,17.45-.85,21.51,1.86,38.62,5.42,28.45,5.76,30.49c.19,1.16,1.23,15.78,2.07,28l-2.61-.08,2.14,17.09-4.14,9.51c-2.54,2.2-12.7,7.62-13.55,9.14s2.54,2.21,4.23,2.21h30.15a3.67,3.67,0,0,0,2.54-2.82c.23-2.13-1.19-13.77-1.19-13.77l3.56-20.65-2.49-.07c1.47-10.51,3-23.55,2.33-27.91-1.19-7.62-3.22-16.26-3.22-18.29s3.22-33.54,4.91-40.31,7.45-16.94,7.45-16.94S495.39,295.59,491.83,283.23Z" style="fill:#263238;stroke:#263238;stroke-miterlimit:10"></path><path d="M444.12,153.13s-4.66-3.86-4.66-7.07,13-9.49,14.62-10.61,12.7-.48,17,1.77,11.73,8.67,13,12.69,1.28,12.22.48,17.36-9.81,11.89-9.81,11.89l3.06,11.41a29.35,29.35,0,0,1,9.64,11.25c3.86,7.72,2.73,45.64,2.73,45.64s-.16,12.38,0,14.31a11.88,11.88,0,0,1-.64,5.94c-1,3.06-1.61,3.06-3.7,2.9s-32.46.64-32.46.64a9.7,9.7,0,0,1-5-1.77c-1.93-1.61-1.29-18.64-1.45-19.12s-3.86-13-4.5-16.88a18.2,18.2,0,0,1,2.09-11.09c1.61-2.89,16.3-29.59,16.3-29.59L456.77,184s-7.23,2.25-8.68,2.25-4.78-12.84-4.78-12.84-3.85-3.38-4.17-4.18,4.82-5.47,4.82-5.47-.32-4.66.16-6.42a14.14,14.14,0,0,1,1.59-2.8Z" style="fill:#fff;stroke:#263238;stroke-miterlimit:10"></path><path d="M444.12,153.13l1.59,1.38,5-5.08s-.48,5.63,2.25,9.64,8.51,6.27,9.16,6.75,1.28,1.61.8,4.82c-.4,2.68-2.36,3.8-3.28,3.81,1,.46,3.58,1.57,4.89.37,1.77-1.6,1.61-4.82,1.44-6.59s.17-3,2.58-4.17,6.59-1.45,6.59,1.92-1.61,6.75-3.06,7.4a12.3,12.3,0,0,1-3.37.8s1.93,4.5,6.1,5c0,0,9-6.75,9.81-11.89s.8-13.34-.48-17.36-8.68-10.44-13-12.69-15.43-2.9-17-1.77-14.62,7.39-14.62,10.61S444.12,153.13,444.12,153.13Z" style="fill:#263238;stroke:#263238;stroke-miterlimit:10"></path><path d="M459.22,174.34a.57.57,0,0,0,.42.11C459.28,174.3,459.1,174.22,459.22,174.34Z" style="fill:none;stroke:#263238;stroke-miterlimit:10"></path><path d="M448.77,165.18c0,1.07-.47,1.93-1,1.93s-1-.86-1-1.93.46-1.93,1-1.93S448.77,164.12,448.77,165.18Z" style="fill:#263238"></path><path d="M445.4,161.16s2.58-2.73,4.83.32" style="fill:none;stroke:#263238;stroke-miterlimit:10"></path><path d="M445.73,176.75a7.8,7.8,0,0,0,6.42-2.73" style="fill:none;stroke:#263238;stroke-miterlimit:10"></path><path d="M487.51,201.82a29.35,29.35,0,0,0-9.64-11.25,10.57,10.57,0,0,0-8.23,3.9c-3.56,4.24-13.89,20.16-13.89,20.16l-6.34-1.34c-2.27,4.34-4.23,8.07-4.81,9.1a18.2,18.2,0,0,0-2.09,11.09c.64,3.86,4.34,16.39,4.5,16.88s-.48,17.51,1.45,19.12a9.7,9.7,0,0,0,5,1.77s30.37-.8,32.46-.64,2.73.16,3.7-2.9a11.88,11.88,0,0,0,.64-5.94c-.16-1.93,0-14.31,0-14.31S491.37,209.54,487.51,201.82Z" style="fill:#407BFF;stroke:#263238;stroke-miterlimit:10"></path><path d="M468.62,266.12l-7.79,40s-5.08,5.59-5.92,7-.51,7.62-.51,9.31.84,4.75,1.52,5.42,1.7,2,3.22,1.87,2.54-.51,2.2-1.87a24.69,24.69,0,0,1,.17-6.26c.17-.68,3.22-2.71,4.57-6.27s1.7-9.82,1.7-9.82L484,268.32Z" style="fill:#fff;stroke:#263238;stroke-miterlimit:10"></path><path d="M484,268.32l-15.42-2.2-1.09,5.61a23.76,23.76,0,0,0,12.84,5Z" style="fill:#407BFF;stroke:#263238;stroke-miterlimit:10"></path><path d="M460.66,329.64a7.42,7.42,0,0,1-2-3.05,35.26,35.26,0,0,1,0-6.1" style="fill:#fff;stroke:#263238;stroke-miterlimit:10"></path><path d="M457.45,329.13a21.53,21.53,0,0,1-1-4.07c-.17-1.69,0-6.6,0-6.6" style="fill:#fff;stroke:#263238;stroke-miterlimit:10"></path><path d="M469,209.38a53.76,53.76,0,0,0-2.71,13.89c-.17,6.6-.67,38.11-.67,40.65S469,269,473,270.18s8.81,1.19,10.67-.17,1.52-1,2-7.11.51-12.7.51-12.7,4.49-31.24,2.88-39.81-5.76-15.41-11.69-15.58-7.28,1.86-7.28,1.86" style="fill:#407BFF;stroke:#263238;stroke-miterlimit:10"></path><path d="M381.34,263.84s-1.51,2.75-1.24,3.28,1.15,1.15,1.77.62a5,5,0,0,0,1.5-3.37C383.28,263.13,382.58,262.42,381.34,263.84Z" style="fill:#fff;stroke:#263238;stroke-miterlimit:10"></path><path d="M384.26,264.55s-1.51,2.75-1.24,3.28,1.15,1.15,1.77.62a5,5,0,0,0,1.51-3.37C386.21,263.84,385.5,263.13,384.26,264.55Z" style="fill:#fff;stroke:#263238;stroke-miterlimit:10"></path><path d="M386.47,265.26s-1.5,2.74-1.24,3.28,1.16,1.15,1.78.62a5,5,0,0,0,1.5-3.37C388.42,264.55,387.71,263.84,386.47,265.26Z" style="fill:#fff;stroke:#263238;stroke-miterlimit:10"></path><path d="M389.11,265.83s-1.17,2.13-1,2.54.89.89,1.37.48a3.87,3.87,0,0,0,1.17-2.61C390.62,265.28,390.07,264.73,389.11,265.83Z" style="fill:#fff;stroke:#263238;stroke-miterlimit:10"></path><path d="M402.17,253.74s-12.1-6.05-13-4.84a47.46,47.46,0,0,0-4.15,7.08c-.52,1.56-.35,2.08,1.38,1.39a22.58,22.58,0,0,0,4.5-3.11s4.14,5.53,7.08,4.66" style="fill:#fff;stroke:#263238;stroke-miterlimit:10"></path></g><g id="freepik--Floor--inject-18"><line x1="33.1" y1="444.48" x2="715.63" y2="444.48" style="fill:none;stroke:#263238;stroke-miterlimit:10"></line></g></svg>